<svg width="29" height="29" viewBox="0 0 29 29" fill="none" xmlns="http://www.w3.org/2000/svg">
<g clip-path="url(#clip0_24_939)">
<path d="M15.799 7.21941C15.799 7.51145 15.799 8.46332 15.799 9.81563H20.4543L19.9495 13.9603H15.799C15.799 20.3523 15.799 28.9178 15.799 28.9178H10.2898C10.2898 28.9178 10.2898 20.4656 10.2898 13.9603H7.41919V9.81563H10.2898C10.2898 8.17195 10.2898 7.00316 10.2898 6.67774C10.2898 5.12724 10.1729 4.39156 10.8325 3.19006C11.4925 1.98862 13.3541 0.400555 16.5738 0.438788C19.7943 0.478414 21.1518 0.787845 21.1518 0.787845L20.4543 5.2051C20.4543 5.2051 18.3978 4.66276 17.3884 4.85604C16.3803 5.04938 15.799 5.66958 15.799 7.21941Z" fill="white"/>
</g>
<defs>
<clipPath id="clip0_24_939">
<rect width="28.5709" height="28.5354" fill="white" transform="translate(0 0.410278)"/>
</clipPath>
</defs>
</svg>
