<svg width="29" height="29" viewBox="0 0 29 29" fill="none" xmlns="http://www.w3.org/2000/svg">
<g clip-path="url(#clip0_24_937)">
<path fill-rule="evenodd" clip-rule="evenodd" d="M27.1071 9.88877C27.1071 7.95628 26.4579 6.37574 25.3801 5.13762C25.5531 4.68897 26.1293 2.88808 25.2134 0.451462C25.2134 0.451462 23.8039 -0.0241283 20.5945 2.26664C19.2533 1.87348 17.8152 1.67691 16.3866 1.67056C14.9581 1.67691 13.52 1.87348 12.1804 2.26664C8.96932 -0.0241283 7.55824 0.451462 7.55824 0.451462C6.64239 2.88808 7.22016 4.68897 7.39316 5.13762C6.31699 6.37574 5.66304 7.95628 5.66304 9.88877C5.66304 16.6739 9.58677 18.1926 13.3184 18.6396C13.3184 18.6396 10.636 20.2994 10.636 23.0896C9.67883 23.543 5.62812 24.9317 4.12815 22.2256C4.12815 22.2256 3.24086 20.5261 1.5536 20.4009C1.5536 20.4009 -0.0876451 20.3787 1.43773 21.4773C1.43773 21.4773 2.5393 22.0227 3.30436 24.0677C3.30436 24.0677 4.15513 28.3766 10.582 26.4409C10.6471 26.4742 10.6058 28.5256 10.6058 28.9457H22.1706C22.1706 28.9457 22.1897 24.8287 22.1897 23.5192C22.1897 20.2994 20.0374 19.1723 19.4326 18.6254C23.177 18.1878 27.1071 16.6913 27.1071 9.88877Z" fill="white"/>
</g>
<defs>
<clipPath id="clip0_24_937">
<rect width="28.5709" height="28.5354" fill="white" transform="translate(0 0.410278)"/>
</clipPath>
</defs>
</svg>
