<svg width="33" height="30" viewBox="0 0 33 30" fill="none" xmlns="http://www.w3.org/2000/svg">
<path d="M7.40743 9.51184H1.05835V29.5923H7.40743V9.51184Z" fill="white"/>
<path d="M3.72804 0C1.47899 0 0 1.3621 0 3.17061C0 4.94477 1.4301 6.34121 3.64248 6.34121H3.69137C5.98931 6.34121 7.41941 4.93332 7.40718 3.17061C7.35829 1.3621 5.97708 0 3.72804 0Z" fill="white"/>
<path d="M24.8862 8.45496C21.3089 8.45496 19.0699 10.5005 18.6571 11.9429V8.65164H11.6401C11.7277 10.3956 11.6401 29.5923 11.6401 29.5923H18.6571V18.2762C18.6571 17.6337 18.6321 17.0043 18.8072 16.5585C19.2825 15.2997 20.3207 13.9884 22.1844 13.9884C24.6235 13.9884 25.7242 15.9291 25.7242 18.7614V29.5923H32.8037V17.9484C32.8037 11.4708 29.3265 8.45496 24.8862 8.45496Z" fill="white"/>
</svg>
