<svg width="41" height="29" viewBox="0 0 41 29" fill="none" xmlns="http://www.w3.org/2000/svg">
<path d="M8.19989 4.25002H1.59889C0.840391 4.25002 0.0818908 4.90602 0.184391 5.97202L3.38239 26.4515C3.38239 26.4515 7.17489 11.3635 7.91289 7.73502C8.13839 6.64852 9.16339 6.30002 9.92189 6.30002H20.4999C20.4999 6.30002 19.0649 2.03602 18.9214 1.56452C18.6754 0.662525 18.2244 0.150024 17.3224 0.150024H10.5369C9.79889 0.150024 9.10189 0.621525 8.89689 1.46202C8.71239 2.28202 8.19989 4.25002 8.19989 4.25002ZM18.2039 4.25002H10.0039C10.0039 4.25002 10.8649 2.20002 11.7874 2.20002H16.1539C17.1379 2.20002 18.2039 4.25002 18.2039 4.25002ZM5.47339 27.3125C4.83789 28.276 3.91539 28.85 2.89039 28.85H35.1369C36.2439 28.85 37.0229 28.2145 37.2484 27.1485C38.1504 22.659 40.6924 9.84652 40.6924 9.84652C40.8359 8.82152 40.0774 8.35002 39.4214 8.35002H32.7999V5.33652C32.7999 5.00852 32.2669 4.25002 31.4469 4.25002H23.7389C22.6729 4.25002 21.9554 5.43902 21.9554 5.43902L20.4999 8.35002H11.4594C10.8034 8.35002 10.1679 8.73952 10.0449 9.37502C10.0449 9.37502 6.78539 23.11 6.51889 24.4015C6.37539 25.16 6.06789 26.431 5.47339 27.3125ZM31.5289 8.35002H22.5499C22.5499 8.35002 23.7389 6.30002 24.8664 6.30002H29.5609C31.0164 6.30002 31.5289 8.35002 31.5289 8.35002Z" fill="white"/>
</svg>
